<svg width="268" height="32" viewBox="0 0 268 32" fill="none" xmlns="http://www.w3.org/2000/svg">
<path d="M16.1474 0.199951C16.1474 0.199951 17.8479 8.79391 20.7415 11.3521C21.059 11.633 21.4411 11.9076 21.87 12.1739C22.3015 11.9074 22.686 11.6327 23.005 11.3521C25.8955 8.80928 27.5991 0.199951 27.5991 0.199951C27.5991 0.199951 29.2996 8.79391 32.1932 11.3521C35.0838 13.9103 43.3434 15.9458 43.3434 15.9458C43.3434 15.9458 35.0869 17.9967 32.1932 20.5395C29.2996 23.0823 27.5991 31.6916 27.5991 31.6916C27.5991 31.6916 25.8986 23.0977 23.005 20.5395C22.6874 20.2588 22.3052 19.9843 21.8764 19.7182C21.4451 19.9846 21.0607 20.259 20.7415 20.5395C17.8479 23.0823 16.1474 31.6916 16.1474 31.6916C16.1474 31.6916 14.4469 23.0977 11.5533 20.5395C8.65963 17.9813 0.400024 15.9458 0.400024 15.9458C0.400024 15.9458 8.66271 13.8949 11.5533 11.3521C14.4438 8.80928 16.1474 0.199951 16.1474 0.199951Z" fill="black"/>
<path d="M53.1347 10.7725V8.8145H64.802V10.7725H60.0983V23.89H57.8311V10.7725H53.1347Z" fill="black"/>
<path d="M68.9555 24.1402C68.239 24.1402 67.5912 24.0077 67.0122 23.7427C66.4331 23.4728 65.9742 23.0827 65.6356 22.5723C65.3019 22.062 65.1351 21.4363 65.1351 20.6953C65.1351 20.0573 65.2578 19.5322 65.5031 19.12C65.7485 18.7078 66.0798 18.3814 66.4969 18.141C66.914 17.9005 67.3802 17.7189 67.8955 17.5963C68.4108 17.4736 68.9359 17.3803 69.4708 17.3165C70.148 17.238 70.6976 17.1742 71.1196 17.1251C71.5417 17.0712 71.8484 16.9853 72.0398 16.8675C72.2312 16.7497 72.3268 16.5583 72.3268 16.2933V16.2418C72.3268 15.599 72.1453 15.1009 71.7821 14.7475C71.4239 14.3942 70.889 14.2175 70.1774 14.2175C69.4364 14.2175 68.8524 14.3819 68.4255 14.7107C68.0034 15.0346 67.7115 15.3953 67.5495 15.7928L65.4811 15.3217C65.7264 14.6347 66.0847 14.0801 66.5558 13.6581C67.0318 13.2311 67.579 12.922 68.1973 12.7306C68.8156 12.5343 69.4658 12.4361 70.148 12.4361C70.5995 12.4361 71.0779 12.4901 71.5834 12.5981C72.0937 12.7011 72.5698 12.8925 73.0114 13.1723C73.458 13.452 73.8236 13.8519 74.1082 14.3721C74.3929 14.8874 74.5352 15.5572 74.5352 16.3817V23.89H72.3857V22.3441H72.2974C72.1551 22.6288 71.9416 22.9085 71.657 23.1833C71.3724 23.4581 71.0068 23.6863 70.5602 23.8679C70.1136 24.0495 69.5787 24.1402 68.9555 24.1402ZM69.4339 22.3736C70.0425 22.3736 70.5626 22.2534 70.9945 22.0129C71.4312 21.7724 71.7625 21.4584 71.9882 21.0707C72.2189 20.6781 72.3342 20.2585 72.3342 19.8119V18.3544C72.2557 18.433 72.1036 18.5066 71.8778 18.5753C71.657 18.6391 71.4043 18.6955 71.1196 18.7446C70.835 18.7887 70.5577 18.8305 70.2878 18.8697C70.0179 18.9041 69.7922 18.9335 69.6106 18.9581C69.1837 19.012 68.7935 19.1028 68.4402 19.2304C68.0918 19.358 67.8121 19.542 67.601 19.7825C67.3949 20.018 67.2919 20.3321 67.2919 20.7247C67.2919 21.2694 67.4931 21.6816 67.8955 21.9614C68.2979 22.2362 68.8107 22.3736 69.4339 22.3736Z" fill="black"/>
<path d="M77.4667 12.5834H79.6677V24.6261C79.6677 25.3818 79.5303 26.0198 79.2555 26.5399C78.9855 27.0601 78.5831 27.4552 78.0482 27.7251C77.5182 27.995 76.8631 28.1299 76.0828 28.1299C76.0043 28.1299 75.9307 28.1299 75.862 28.1299C75.7884 28.1299 75.7123 28.1275 75.6338 28.1226V26.2308C75.7025 26.2308 75.7639 26.2308 75.8178 26.2308C75.8669 26.2308 75.9233 26.2308 75.9871 26.2308C76.5073 26.2308 76.8827 26.0909 77.1134 25.8112C77.3489 25.5364 77.4667 25.1364 77.4667 24.6113V12.5834ZM78.5561 10.8388C78.1734 10.8388 77.8446 10.7112 77.5698 10.456C77.2999 10.1959 77.1649 9.88676 77.1649 9.52852C77.1649 9.16538 77.2999 8.85621 77.5698 8.60103C77.8446 8.34094 78.1734 8.21089 78.5561 8.21089C78.9389 8.21089 79.2653 8.34094 79.5352 8.60103C79.81 8.85621 79.9474 9.16538 79.9474 9.52852C79.9474 9.88676 79.81 10.1959 79.5352 10.456C79.2653 10.7112 78.9389 10.8388 78.5561 10.8388Z" fill="black"/>
<path d="M82.6287 23.89V12.5834H84.8296V23.89H82.6287ZM83.7402 10.8388C83.3574 10.8388 83.0286 10.7112 82.7538 10.456C82.4839 10.1959 82.3489 9.88676 82.3489 9.52852C82.3489 9.16538 82.4839 8.85621 82.7538 8.60103C83.0286 8.34094 83.3574 8.21089 83.7402 8.21089C84.123 8.21089 84.4493 8.34094 84.7192 8.60103C84.994 8.85621 85.1314 9.16538 85.1314 9.52852C85.1314 9.88676 84.994 10.1959 84.7192 10.456C84.4493 10.7112 84.123 10.8388 83.7402 10.8388Z" fill="black"/>
<path d="M109.965 28.1299V12.5834H112.115V14.4163H112.299C112.426 14.1807 112.61 13.9084 112.851 13.5992C113.091 13.29 113.425 13.0201 113.852 12.7895C114.279 12.5539 114.843 12.4361 115.545 12.4361C116.458 12.4361 117.272 12.6668 117.989 13.1281C118.705 13.5894 119.267 14.2543 119.675 15.1229C120.087 15.9915 120.293 17.0368 120.293 18.2587C120.293 19.4807 120.089 20.5284 119.682 21.4019C119.275 22.2705 118.715 22.9404 118.004 23.4115C117.292 23.8777 116.48 24.1108 115.567 24.1108C114.88 24.1108 114.318 23.9955 113.881 23.7648C113.45 23.5342 113.111 23.2643 112.866 22.9551C112.62 22.6459 112.431 22.3711 112.299 22.1307H112.166V28.1299H109.965ZM112.122 18.2367C112.122 19.0317 112.237 19.7285 112.468 20.3272C112.699 20.9259 113.032 21.3946 113.469 21.7332C113.906 22.0669 114.441 22.2337 115.074 22.2337C115.731 22.2337 116.281 22.0595 116.723 21.7111C117.164 21.3578 117.498 20.8793 117.724 20.2757C117.955 19.6721 118.07 18.9924 118.07 18.2367C118.07 17.4907 117.957 16.8209 117.731 16.2271C117.51 15.6333 117.177 15.1646 116.73 14.8211C116.288 14.4776 115.736 14.3059 115.074 14.3059C114.436 14.3059 113.896 14.4703 113.454 14.799C113.018 15.1278 112.686 15.5867 112.461 16.1756C112.235 16.7645 112.122 17.4515 112.122 18.2367Z" fill="black"/>
<path d="M127.521 24.1182C126.461 24.1182 125.536 23.8752 124.746 23.3894C123.956 22.9036 123.343 22.2239 122.906 21.3504C122.469 20.4769 122.251 19.4562 122.251 18.2882C122.251 17.1153 122.469 16.0897 122.906 15.2113C123.343 14.3328 123.956 13.6507 124.746 13.1649C125.536 12.6791 126.461 12.4361 127.521 12.4361C128.581 12.4361 129.506 12.6791 130.297 13.1649C131.087 13.6507 131.7 14.3328 132.137 15.2113C132.574 16.0897 132.792 17.1153 132.792 18.2882C132.792 19.4562 132.574 20.4769 132.137 21.3504C131.7 22.2239 131.087 22.9036 130.297 23.3894C129.506 23.8752 128.581 24.1182 127.521 24.1182ZM127.529 22.2705C128.216 22.2705 128.785 22.089 129.237 21.7258C129.688 21.3627 130.022 20.8793 130.238 20.2757C130.459 19.6721 130.569 19.0071 130.569 18.2808C130.569 17.5594 130.459 16.897 130.238 16.2933C130.022 15.6848 129.688 15.1965 129.237 14.8285C128.785 14.4604 128.216 14.2764 127.529 14.2764C126.837 14.2764 126.263 14.4604 125.806 14.8285C125.355 15.1965 125.019 15.6848 124.798 16.2933C124.582 16.897 124.474 17.5594 124.474 18.2808C124.474 19.0071 124.582 19.6721 124.798 20.2757C125.019 20.8793 125.355 21.3627 125.806 21.7258C126.263 22.089 126.837 22.2705 127.529 22.2705Z" fill="black"/>
<path d="M135.249 23.89V12.5834H137.376V14.3795H137.494C137.7 13.771 138.063 13.2925 138.583 12.9441C139.108 12.5907 139.702 12.4141 140.365 12.4141C140.502 12.4141 140.664 12.419 140.85 12.4288C141.042 12.4386 141.192 12.4509 141.3 12.4656V14.5709C141.211 14.5463 141.054 14.5193 140.828 14.4899C140.603 14.4555 140.377 14.4384 140.151 14.4384C139.631 14.4384 139.167 14.5488 138.76 14.7696C138.358 14.9855 138.039 15.2873 137.803 15.675C137.567 16.0578 137.45 16.4945 137.45 16.9853V23.89H135.249Z" fill="black"/>
<path d="M149.15 12.5834V14.35H142.974V12.5834H149.15ZM144.63 9.8745H146.831V20.5701C146.831 20.9971 146.895 21.3185 147.023 21.5344C147.15 21.7454 147.315 21.8902 147.516 21.9687C147.722 22.0423 147.945 22.0791 148.186 22.0791C148.362 22.0791 148.517 22.0669 148.65 22.0423C148.782 22.0178 148.885 21.9982 148.959 21.9834L149.356 23.8016C149.229 23.8507 149.047 23.8998 148.811 23.9489C148.576 24.0028 148.281 24.0323 147.928 24.0372C147.349 24.047 146.809 23.9439 146.309 23.728C145.808 23.5121 145.403 23.1784 145.094 22.7269C144.785 22.2754 144.63 21.7086 144.63 21.0265V9.8745Z" fill="black"/>
<path d="M156.966 12.5834V14.35H150.576V12.5834H156.966ZM152.328 23.89V11.2731C152.328 10.5664 152.483 9.98 152.792 9.5138C153.101 9.04269 153.511 8.69182 154.021 8.46117C154.532 8.22562 155.086 8.10784 155.685 8.10784C156.127 8.10784 156.504 8.14464 156.818 8.21826C157.133 8.28696 157.366 8.35075 157.518 8.40964L157.003 10.191C156.899 10.1616 156.767 10.1272 156.605 10.088C156.443 10.0438 156.247 10.0217 156.016 10.0217C155.481 10.0217 155.098 10.1542 154.868 10.4192C154.642 10.6842 154.529 11.067 154.529 11.5675V23.89H152.328Z" fill="black"/>
<path d="M163.554 24.1182C162.494 24.1182 161.569 23.8752 160.779 23.3894C159.989 22.9036 159.375 22.2239 158.938 21.3504C158.502 20.4769 158.283 19.4562 158.283 18.2882C158.283 17.1153 158.502 16.0897 158.938 15.2113C159.375 14.3328 159.989 13.6507 160.779 13.1649C161.569 12.6791 162.494 12.4361 163.554 12.4361C164.614 12.4361 165.539 12.6791 166.329 13.1649C167.119 13.6507 167.732 14.3328 168.169 15.2113C168.606 16.0897 168.824 17.1153 168.824 18.2882C168.824 19.4562 168.606 20.4769 168.169 21.3504C167.732 22.2239 167.119 22.9036 166.329 23.3894C165.539 23.8752 164.614 24.1182 163.554 24.1182ZM163.561 22.2705C164.248 22.2705 164.818 22.089 165.269 21.7258C165.72 21.3627 166.054 20.8793 166.27 20.2757C166.491 19.6721 166.601 19.0071 166.601 18.2808C166.601 17.5594 166.491 16.897 166.27 16.2933C166.054 15.6848 165.72 15.1965 165.269 14.8285C164.818 14.4604 164.248 14.2764 163.561 14.2764C162.869 14.2764 162.295 14.4604 161.839 14.8285C161.387 15.1965 161.051 15.6848 160.83 16.2933C160.614 16.897 160.506 17.5594 160.506 18.2808C160.506 19.0071 160.614 19.6721 160.83 20.2757C161.051 20.8793 161.387 21.3627 161.839 21.7258C162.295 22.089 162.869 22.2705 163.561 22.2705Z" fill="black"/>
<path d="M173.482 8.8145V23.89H171.281V8.8145H173.482Z" fill="black"/>
<path d="M176.443 23.89V12.5834H178.644V23.89H176.443ZM177.555 10.8388C177.172 10.8388 176.843 10.7112 176.568 10.456C176.298 10.1959 176.163 9.88676 176.163 9.52852C176.163 9.16538 176.298 8.85621 176.568 8.60103C176.843 8.34094 177.172 8.21089 177.555 8.21089C177.937 8.21089 178.264 8.34094 178.534 8.60103C178.808 8.85621 178.946 9.16538 178.946 9.52852C178.946 9.88676 178.808 10.1959 178.534 10.456C178.264 10.7112 177.937 10.8388 177.555 10.8388Z" fill="black"/>
<path d="M186.368 24.1182C185.308 24.1182 184.383 23.8752 183.593 23.3894C182.802 22.9036 182.189 22.2239 181.752 21.3504C181.316 20.4769 181.097 19.4562 181.097 18.2882C181.097 17.1153 181.316 16.0897 181.752 15.2113C182.189 14.3328 182.802 13.6507 183.593 13.1649C184.383 12.6791 185.308 12.4361 186.368 12.4361C187.428 12.4361 188.353 12.6791 189.143 13.1649C189.933 13.6507 190.546 14.3328 190.983 15.2113C191.42 16.0897 191.638 17.1153 191.638 18.2882C191.638 19.4562 191.42 20.4769 190.983 21.3504C190.546 22.2239 189.933 22.9036 189.143 23.3894C188.353 23.8752 187.428 24.1182 186.368 24.1182ZM186.375 22.2705C187.062 22.2705 187.631 22.089 188.083 21.7258C188.534 21.3627 188.868 20.8793 189.084 20.2757C189.305 19.6721 189.415 19.0071 189.415 18.2808C189.415 17.5594 189.305 16.897 189.084 16.2933C188.868 15.6848 188.534 15.1965 188.083 14.8285C187.631 14.4604 187.062 14.2764 186.375 14.2764C185.683 14.2764 185.109 14.4604 184.653 14.8285C184.201 15.1965 183.865 15.6848 183.644 16.2933C183.428 16.897 183.32 17.5594 183.32 18.2808C183.32 19.0071 183.428 19.6721 183.644 20.2757C183.865 20.8793 184.201 21.3627 184.653 21.7258C185.109 22.089 185.683 22.2705 186.375 22.2705Z" fill="black"/>
<path d="M204.859 12.5834V14.35H198.683V12.5834H204.859ZM200.339 9.8745H202.54V20.5701C202.54 20.9971 202.604 21.3185 202.731 21.5344C202.859 21.7454 203.023 21.8902 203.224 21.9687C203.431 22.0423 203.654 22.0791 203.894 22.0791C204.071 22.0791 204.226 22.0669 204.358 22.0423C204.491 22.0178 204.594 21.9982 204.667 21.9834L205.065 23.8016C204.937 23.8507 204.756 23.8998 204.52 23.9489C204.284 24.0028 203.99 24.0323 203.637 24.0372C203.058 24.047 202.518 23.9439 202.017 23.728C201.517 23.5121 201.112 23.1784 200.803 22.7269C200.494 22.2754 200.339 21.7086 200.339 21.0265V9.8745Z" fill="black"/>
<path d="M207.293 23.89V12.5834H209.421V14.3795H209.538C209.745 13.771 210.108 13.2925 210.628 12.9441C211.153 12.5907 211.747 12.4141 212.409 12.4141C212.547 12.4141 212.709 12.419 212.895 12.4288C213.086 12.4386 213.236 12.4509 213.344 12.4656V14.5709C213.256 14.5463 213.099 14.5193 212.873 14.4899C212.647 14.4555 212.422 14.4384 212.196 14.4384C211.676 14.4384 211.212 14.5488 210.805 14.7696C210.402 14.9855 210.083 15.2873 209.848 15.675C209.612 16.0578 209.494 16.4945 209.494 16.9853V23.89H207.293Z" fill="black"/>
<path d="M218.438 24.1402C217.721 24.1402 217.074 24.0077 216.495 23.7427C215.916 23.4728 215.457 23.0827 215.118 22.5723C214.784 22.062 214.618 21.4363 214.618 20.6953C214.618 20.0573 214.74 19.5322 214.986 19.12C215.231 18.7078 215.562 18.3814 215.979 18.141C216.397 17.9005 216.863 17.7189 217.378 17.5963C217.893 17.4736 218.418 17.3803 218.953 17.3165C219.63 17.238 220.18 17.1742 220.602 17.1251C221.024 17.0712 221.331 16.9853 221.522 16.8675C221.714 16.7497 221.809 16.5583 221.809 16.2933V16.2418C221.809 15.599 221.628 15.1009 221.265 14.7475C220.906 14.3942 220.371 14.2175 219.66 14.2175C218.919 14.2175 218.335 14.3819 217.908 14.7107C217.486 15.0346 217.194 15.3953 217.032 15.7928L214.964 15.3217C215.209 14.6347 215.567 14.0801 216.038 13.6581C216.514 13.2311 217.061 12.922 217.68 12.7306C218.298 12.5343 218.948 12.4361 219.63 12.4361C220.082 12.4361 220.56 12.4901 221.066 12.5981C221.576 12.7011 222.052 12.8925 222.494 13.1723C222.94 13.452 223.306 13.8519 223.591 14.3721C223.875 14.8874 224.018 15.5572 224.018 16.3817V23.89H221.868V22.3441H221.78C221.638 22.6288 221.424 22.9085 221.139 23.1833C220.855 23.4581 220.489 23.6863 220.043 23.8679C219.596 24.0495 219.061 24.1402 218.438 24.1402ZM218.916 22.3736C219.525 22.3736 220.045 22.2534 220.477 22.0129C220.914 21.7724 221.245 21.4584 221.471 21.0707C221.701 20.6781 221.817 20.2585 221.817 19.8119V18.3544C221.738 18.433 221.586 18.5066 221.36 18.5753C221.139 18.6391 220.887 18.6955 220.602 18.7446C220.318 18.7887 220.04 18.8305 219.77 18.8697C219.5 18.9041 219.275 18.9335 219.093 18.9581C218.666 19.012 218.276 19.1028 217.923 19.2304C217.574 19.358 217.295 19.542 217.084 19.7825C216.877 20.018 216.774 20.3321 216.774 20.7247C216.774 21.2694 216.976 21.6816 217.378 21.9614C217.78 22.2362 218.293 22.3736 218.916 22.3736Z" fill="black"/>
<path d="M231.712 24.1182C230.617 24.1182 229.675 23.8703 228.885 23.3747C228.1 22.8741 227.496 22.1847 227.074 21.3062C226.652 20.4278 226.441 19.4218 226.441 18.2882C226.441 17.1399 226.657 16.1265 227.089 15.2481C227.521 14.3647 228.129 13.6753 228.915 13.1796C229.7 12.684 230.625 12.4361 231.69 12.4361C232.549 12.4361 233.314 12.5956 233.986 12.9146C234.659 13.2287 235.201 13.6704 235.613 14.2396C236.03 14.8089 236.278 15.4738 236.357 16.2345H234.215C234.097 15.7045 233.827 15.2481 233.405 14.8653C232.988 14.4825 232.428 14.2911 231.727 14.2911C231.113 14.2911 230.576 14.4531 230.114 14.777C229.658 15.0959 229.302 15.5523 229.047 16.1461C228.792 16.735 228.664 17.4319 228.664 18.2367C228.664 19.0611 228.789 19.7727 229.04 20.3714C229.29 20.9701 229.643 21.4338 230.1 21.7626C230.561 22.0914 231.103 22.2558 231.727 22.2558C232.144 22.2558 232.522 22.1797 232.86 22.0276C233.204 21.8706 233.491 21.6473 233.721 21.3578C233.957 21.0682 234.121 20.7198 234.215 20.3125H236.357C236.278 21.0437 236.04 21.6964 235.643 22.2705C235.245 22.8447 234.713 23.2962 234.045 23.625C233.383 23.9538 232.605 24.1182 231.712 24.1182Z" fill="black"/>
<path d="M240.735 20.0549L240.72 17.3681H241.103L245.608 12.5834H248.243L243.105 18.0306H242.759L240.735 20.0549ZM238.71 23.89V8.8145H240.911V23.89H238.71ZM245.851 23.89L241.802 18.5164L243.318 16.9779L248.552 23.89H245.851Z" fill="black"/>
<path d="M254.656 24.1182C253.542 24.1182 252.583 23.8802 251.778 23.4041C250.978 22.9232 250.36 22.2484 249.923 21.3798C249.491 20.5063 249.275 19.4831 249.275 18.3103C249.275 17.1521 249.491 16.1314 249.923 15.2481C250.36 14.3647 250.968 13.6753 251.749 13.1796C252.534 12.684 253.452 12.4361 254.502 12.4361C255.14 12.4361 255.758 12.5417 256.357 12.7527C256.955 12.9637 257.493 13.2949 257.969 13.7464C258.445 14.1979 258.82 14.7843 259.095 15.5057C259.37 16.2222 259.507 17.0932 259.507 18.1189V18.8992H250.519V17.2503H257.35C257.35 16.6712 257.233 16.1584 256.997 15.7118C256.762 15.2603 256.43 14.9046 256.003 14.6445C255.581 14.3844 255.086 14.2543 254.516 14.2543C253.898 14.2543 253.358 14.4065 252.897 14.7107C252.441 15.0101 252.087 15.4027 251.837 15.8885C251.592 16.3694 251.469 16.892 251.469 17.4564V18.7446C251.469 19.5003 251.601 20.1432 251.866 20.6732C252.136 21.2032 252.512 21.608 252.993 21.8878C253.474 22.1626 254.035 22.3 254.678 22.3C255.095 22.3 255.476 22.2411 255.819 22.1233C256.163 22.0006 256.46 21.8191 256.71 21.5786C256.96 21.3381 257.152 21.0412 257.284 20.6879L259.367 21.0633C259.201 21.6767 258.901 22.2141 258.469 22.6754C258.042 23.1318 257.505 23.4876 256.857 23.7427C256.214 23.993 255.481 24.1182 254.656 24.1182Z" fill="black"/>
<path d="M261.949 23.89V12.5834H264.077V14.3795H264.194C264.4 13.771 264.764 13.2925 265.284 12.9441C265.809 12.5907 266.403 12.4141 267.065 12.4141C267.203 12.4141 267.365 12.419 267.551 12.4288C267.742 12.4386 267.892 12.4509 268 12.4656V14.5709C267.912 14.5463 267.755 14.5193 267.529 14.4899C267.303 14.4555 267.077 14.4384 266.852 14.4384C266.332 14.4384 265.868 14.5488 265.46 14.7696C265.058 14.9855 264.739 15.2873 264.504 15.675C264.268 16.0578 264.15 16.4945 264.15 16.9853V23.89H261.949Z" fill="black"/>
<path d="M96.6407 4.64183H99.602V26.8512H96.6407V4.64183Z" fill="black"/>
</svg>
